<mxfile host="app.diagrams.net" modified="2023-07-29T16:42:57.361Z" agent="Mozilla/5.0 (Windows NT 10.0; Win64; x64; rv:109.0) Gecko/20100101 Firefox/115.0" etag="j_zXXMM8CaXFVXklHXJh" version="21.6.6" type="device">
  <diagram name="Страница 1" id="DI1UH6xH8VteNuz1-n5u">
    <mxGraphModel dx="681" dy="960" grid="1" gridSize="10" guides="1" tooltips="1" connect="1" arrows="1" fold="1" page="1" pageScale="1" pageWidth="827" pageHeight="1169" math="0" shadow="0">
      <root>
        <mxCell id="0" />
        <mxCell id="1" parent="0" />
        <mxCell id="Jcf2fl5_Mw3EX5AjTMiC-1" value="&lt;font style=&quot;font-size: 14px;&quot;&gt;Animal&lt;/font&gt;" style="swimlane;fontStyle=0;childLayout=stackLayout;horizontal=1;startSize=30;horizontalStack=0;resizeParent=1;resizeParentMax=0;resizeLast=0;collapsible=1;marginBottom=0;whiteSpace=wrap;html=1;" vertex="1" parent="1">
          <mxGeometry x="360" y="40" width="160" height="120" as="geometry" />
        </mxCell>
        <mxCell id="Jcf2fl5_Mw3EX5AjTMiC-2" value="&lt;font style=&quot;font-size: 14px;&quot;&gt;name: String&lt;/font&gt;" style="text;strokeColor=none;fillColor=none;align=left;verticalAlign=middle;spacingLeft=4;spacingRight=4;overflow=hidden;points=[[0,0.5],[1,0.5]];portConstraint=eastwest;rotatable=0;whiteSpace=wrap;html=1;" vertex="1" parent="Jcf2fl5_Mw3EX5AjTMiC-1">
          <mxGeometry y="30" width="160" height="30" as="geometry" />
        </mxCell>
        <mxCell id="Jcf2fl5_Mw3EX5AjTMiC-3" value="&lt;font style=&quot;font-size: 14px;&quot;&gt;age: Date&lt;/font&gt;" style="text;strokeColor=none;fillColor=none;align=left;verticalAlign=middle;spacingLeft=4;spacingRight=4;overflow=hidden;points=[[0,0.5],[1,0.5]];portConstraint=eastwest;rotatable=0;whiteSpace=wrap;html=1;" vertex="1" parent="Jcf2fl5_Mw3EX5AjTMiC-1">
          <mxGeometry y="60" width="160" height="30" as="geometry" />
        </mxCell>
        <mxCell id="Jcf2fl5_Mw3EX5AjTMiC-4" value="&lt;font style=&quot;font-size: 14px;&quot;&gt;commands: List&lt;/font&gt;" style="text;strokeColor=none;fillColor=none;align=left;verticalAlign=middle;spacingLeft=4;spacingRight=4;overflow=hidden;points=[[0,0.5],[1,0.5]];portConstraint=eastwest;rotatable=0;whiteSpace=wrap;html=1;" vertex="1" parent="Jcf2fl5_Mw3EX5AjTMiC-1">
          <mxGeometry y="90" width="160" height="30" as="geometry" />
        </mxCell>
        <mxCell id="Jcf2fl5_Mw3EX5AjTMiC-5" value="" style="rounded=0;whiteSpace=wrap;html=1;" vertex="1" parent="1">
          <mxGeometry x="240" y="240" width="120" height="60" as="geometry" />
        </mxCell>
        <mxCell id="Jcf2fl5_Mw3EX5AjTMiC-6" value="&lt;font style=&quot;font-size: 14px;&quot;&gt;pack_animals&lt;/font&gt;" style="rounded=0;whiteSpace=wrap;html=1;" vertex="1" parent="1">
          <mxGeometry x="520" y="240" width="120" height="60" as="geometry" />
        </mxCell>
        <mxCell id="Jcf2fl5_Mw3EX5AjTMiC-7" value="" style="rounded=0;whiteSpace=wrap;html=1;" vertex="1" parent="1">
          <mxGeometry x="620" y="360" width="90" height="30" as="geometry" />
        </mxCell>
        <mxCell id="Jcf2fl5_Mw3EX5AjTMiC-8" value="" style="rounded=0;whiteSpace=wrap;html=1;" vertex="1" parent="1">
          <mxGeometry x="720" y="360" width="90" height="30" as="geometry" />
        </mxCell>
        <mxCell id="Jcf2fl5_Mw3EX5AjTMiC-9" value="" style="rounded=0;whiteSpace=wrap;html=1;" vertex="1" parent="1">
          <mxGeometry x="520" y="360" width="90" height="30" as="geometry" />
        </mxCell>
        <mxCell id="Jcf2fl5_Mw3EX5AjTMiC-10" value="" style="rounded=0;whiteSpace=wrap;html=1;" vertex="1" parent="1">
          <mxGeometry x="170" y="360" width="90" height="30" as="geometry" />
        </mxCell>
        <mxCell id="Jcf2fl5_Mw3EX5AjTMiC-11" value="" style="rounded=0;whiteSpace=wrap;html=1;" vertex="1" parent="1">
          <mxGeometry x="270" y="360" width="90" height="30" as="geometry" />
        </mxCell>
        <mxCell id="Jcf2fl5_Mw3EX5AjTMiC-12" value="" style="rounded=0;whiteSpace=wrap;html=1;" vertex="1" parent="1">
          <mxGeometry x="70" y="360" width="90" height="30" as="geometry" />
        </mxCell>
        <mxCell id="Jcf2fl5_Mw3EX5AjTMiC-20" value="" style="shape=partialRectangle;whiteSpace=wrap;html=1;bottom=0;right=0;fillColor=none;" vertex="1" parent="1">
          <mxGeometry x="110" y="320" width="110" height="40" as="geometry" />
        </mxCell>
        <mxCell id="Jcf2fl5_Mw3EX5AjTMiC-24" value="" style="edgeStyle=orthogonalEdgeStyle;rounded=0;orthogonalLoop=1;jettySize=auto;html=1;" edge="1" parent="1" source="Jcf2fl5_Mw3EX5AjTMiC-21" target="Jcf2fl5_Mw3EX5AjTMiC-5">
          <mxGeometry relative="1" as="geometry">
            <Array as="points">
              <mxPoint x="280" y="300" />
              <mxPoint x="280" y="300" />
            </Array>
          </mxGeometry>
        </mxCell>
        <mxCell id="Jcf2fl5_Mw3EX5AjTMiC-21" value="" style="shape=partialRectangle;whiteSpace=wrap;html=1;bottom=0;right=0;fillColor=none;direction=south;" vertex="1" parent="1">
          <mxGeometry x="220" y="320" width="100" height="40" as="geometry" />
        </mxCell>
        <mxCell id="Jcf2fl5_Mw3EX5AjTMiC-23" value="" style="line;strokeWidth=2;direction=south;html=1;" vertex="1" parent="1">
          <mxGeometry x="210" y="320" width="10" height="40" as="geometry" />
        </mxCell>
        <mxCell id="Jcf2fl5_Mw3EX5AjTMiC-25" value="" style="line;strokeWidth=2;direction=south;html=1;" vertex="1" parent="1">
          <mxGeometry x="760" y="320" width="10" height="40" as="geometry" />
        </mxCell>
        <mxCell id="Jcf2fl5_Mw3EX5AjTMiC-26" value="" style="line;strokeWidth=2;direction=south;html=1;" vertex="1" parent="1">
          <mxGeometry x="560" y="320" width="10" height="40" as="geometry" />
        </mxCell>
        <mxCell id="Jcf2fl5_Mw3EX5AjTMiC-32" value="" style="line;strokeWidth=2;direction=south;html=1;" vertex="1" parent="1">
          <mxGeometry x="660" y="320" width="10" height="40" as="geometry" />
        </mxCell>
        <mxCell id="Jcf2fl5_Mw3EX5AjTMiC-34" value="" style="line;strokeWidth=2;html=1;" vertex="1" parent="1">
          <mxGeometry x="565" y="310" width="200" height="18" as="geometry" />
        </mxCell>
        <mxCell id="Jcf2fl5_Mw3EX5AjTMiC-36" value="" style="line;strokeWidth=2;html=1;" vertex="1" parent="1">
          <mxGeometry x="300" y="190" width="280" height="18" as="geometry" />
        </mxCell>
        <mxCell id="Jcf2fl5_Mw3EX5AjTMiC-37" value="" style="line;strokeWidth=2;direction=south;html=1;" vertex="1" parent="1">
          <mxGeometry x="300" y="200" width="2" height="40" as="geometry" />
        </mxCell>
        <mxCell id="Jcf2fl5_Mw3EX5AjTMiC-38" value="" style="line;strokeWidth=2;direction=south;html=1;" vertex="1" parent="1">
          <mxGeometry x="575" y="200" width="10" height="40" as="geometry" />
        </mxCell>
        <mxCell id="Jcf2fl5_Mw3EX5AjTMiC-39" value="" style="edgeStyle=elbowEdgeStyle;elbow=vertical;endArrow=classic;html=1;curved=0;rounded=0;endSize=8;startSize=8;exitX=0.499;exitY=0.534;exitDx=0;exitDy=0;exitPerimeter=0;" edge="1" parent="1" source="Jcf2fl5_Mw3EX5AjTMiC-36">
          <mxGeometry width="50" height="50" relative="1" as="geometry">
            <mxPoint x="440" y="190" as="sourcePoint" />
            <mxPoint x="439.6" y="160" as="targetPoint" />
          </mxGeometry>
        </mxCell>
        <mxCell id="Jcf2fl5_Mw3EX5AjTMiC-40" value="" style="edgeStyle=elbowEdgeStyle;elbow=vertical;endArrow=classic;html=1;curved=0;rounded=0;endSize=8;startSize=8;" edge="1" parent="1">
          <mxGeometry width="50" height="50" relative="1" as="geometry">
            <mxPoint x="610" y="320" as="sourcePoint" />
            <mxPoint x="610" y="300" as="targetPoint" />
            <Array as="points" />
          </mxGeometry>
        </mxCell>
        <mxCell id="Jcf2fl5_Mw3EX5AjTMiC-41" value="&lt;font style=&quot;font-size: 14px;&quot;&gt;home_animals&lt;/font&gt;" style="text;strokeColor=none;fillColor=none;html=1;fontSize=24;fontStyle=1;verticalAlign=middle;align=center;" vertex="1" parent="1">
          <mxGeometry x="251" y="260" width="100" height="20" as="geometry" />
        </mxCell>
        <mxCell id="Jcf2fl5_Mw3EX5AjTMiC-43" value="&lt;font style=&quot;font-size: 14px;&quot;&gt;Dog&lt;/font&gt;" style="text;strokeColor=none;fillColor=none;html=1;fontSize=24;fontStyle=1;verticalAlign=middle;align=center;" vertex="1" parent="1">
          <mxGeometry x="65" y="355" width="100" height="40" as="geometry" />
        </mxCell>
        <mxCell id="Jcf2fl5_Mw3EX5AjTMiC-44" value="&lt;font style=&quot;font-size: 14px;&quot;&gt;Cat&lt;/font&gt;" style="text;strokeColor=none;fillColor=none;html=1;fontSize=24;fontStyle=1;verticalAlign=middle;align=center;" vertex="1" parent="1">
          <mxGeometry x="165" y="355" width="100" height="40" as="geometry" />
        </mxCell>
        <mxCell id="Jcf2fl5_Mw3EX5AjTMiC-45" value="&lt;font style=&quot;font-size: 14px;&quot;&gt;Hamster&lt;/font&gt;" style="text;strokeColor=none;fillColor=none;html=1;fontSize=24;fontStyle=1;verticalAlign=middle;align=center;" vertex="1" parent="1">
          <mxGeometry x="265" y="355" width="100" height="40" as="geometry" />
        </mxCell>
        <mxCell id="Jcf2fl5_Mw3EX5AjTMiC-46" value="&lt;font style=&quot;font-size: 14px;&quot;&gt;Horse&lt;/font&gt;" style="text;strokeColor=none;fillColor=none;html=1;fontSize=24;fontStyle=1;verticalAlign=middle;align=center;" vertex="1" parent="1">
          <mxGeometry x="515" y="355" width="100" height="40" as="geometry" />
        </mxCell>
        <mxCell id="Jcf2fl5_Mw3EX5AjTMiC-47" value="&lt;font style=&quot;font-size: 14px;&quot;&gt;Camel&lt;/font&gt;" style="text;strokeColor=none;fillColor=none;html=1;fontSize=24;fontStyle=1;verticalAlign=middle;align=center;" vertex="1" parent="1">
          <mxGeometry x="615" y="355" width="100" height="40" as="geometry" />
        </mxCell>
        <mxCell id="Jcf2fl5_Mw3EX5AjTMiC-48" value="&lt;div&gt;&lt;font style=&quot;font-size: 14px;&quot;&gt;Donkey&lt;/font&gt;&lt;/div&gt;" style="text;strokeColor=none;fillColor=none;html=1;fontSize=24;fontStyle=1;verticalAlign=middle;align=center;" vertex="1" parent="1">
          <mxGeometry x="715" y="355" width="100" height="40" as="geometry" />
        </mxCell>
      </root>
    </mxGraphModel>
  </diagram>
</mxfile>
